<svg xmlns="http://www.w3.org/2000/svg" viewBox="0 0 256 256" role="img" aria-labelledby="title"><title id="title">AE — Shared circles</title><defs><linearGradient id="ember" x1="36" y1="36" x2="209" y2="235" gradientUnits="userSpaceOnUse"><stop stop-color="#ffce6d"/><stop offset=".38" stop-color="#f47a4f"/><stop offset=".7" stop-color="#d73d3d"/><stop offset="1" stop-color="#6e2743"/></linearGradient></defs><path d="M140 128A64 64 0 1 1 12 128A64 64 0 1 1 140 128ZM101.6 108.8A32 32 0 1 0 101.6 147.2L116 128Z" fill="url(#ember)" fill-rule="evenodd"/><path d="M242.864 140H150.335A32 32 0 0 0 180 160H235.426A64 64 0 1 1 244 128A64 64 0 0 1 242.864 140ZM150.335 116H209.665A32 32 0 0 0 150.335 116Z" fill="url(#ember)" fill-rule="evenodd"/></svg>
