<?xml version="1.0" encoding="UTF-8"?>
<svg xmlns="http://www.w3.org/2000/svg" xmlns:xlink="http://www.w3.org/1999/xlink" viewBox="0 0 96 96" width="96px" height="96px">
<g id="surface72980177">
<path style=" stroke:none;fill-rule:nonzero;fill:rgb(100%,100%,100%);fill-opacity:1;" d="M 48 80.640625 C 29.972656 80.640625 15.359375 66.027344 15.359375 48 C 15.359375 29.972656 29.972656 15.359375 48 15.359375 C 66.027344 15.359375 80.640625 29.972656 80.640625 48 C 80.640625 66.027344 66.027344 80.640625 48 80.640625 Z M 48 80.640625 "/>
<path style=" stroke:none;fill-rule:nonzero;fill:rgb(5.490196%,46.27451%,65.882355%);fill-opacity:1;" d="M 84 12 L 12 12 L 12 84 L 84 84 Z M 36 68 L 25.90625 68 L 25.90625 40 L 36 40 Z M 30.777344 34.867188 C 27.691406 34.867188 25.632812 32.8125 25.632812 30.066406 C 25.632812 27.324219 27.6875 25.269531 31.117188 25.269531 C 34.199219 25.269531 36.261719 27.324219 36.261719 30.066406 C 36.261719 32.8125 34.203125 34.867188 30.777344 34.867188 Z M 72 68 L 62.230469 68 L 62.230469 52.695312 C 62.230469 48.464844 59.628906 47.488281 58.652344 47.488281 C 57.675781 47.488281 54.421875 48.140625 54.421875 52.695312 C 54.421875 53.347656 54.421875 68 54.421875 68 L 44.328125 68 L 44.328125 40 L 54.421875 40 L 54.421875 43.90625 C 55.71875 41.628906 58.324219 40 63.207031 40 C 68.09375 40 72 43.90625 72 52.695312 Z M 72 68 "/>
</g>
</svg>
