<?xml version="1.0" encoding="UTF-8"?>
<svg xmlns="http://www.w3.org/2000/svg" xmlns:xlink="http://www.w3.org/1999/xlink" viewBox="0 0 100 100" width="100px" height="100px">
<g id="surface72992189">
<rect id="override-github" x="12" y="10" width="75" height="80" style="fill:rgba(12.941177%,12.156863%,12.156863%, 0);fill-opacity:0;stroke:none;"/>
<path style=" stroke:none;fill-rule:nonzero;fill:rgb(100%,100%,100%);fill-opacity:1;" d="M 39.28125 82.171875 C 40.335938 81.71875 41.078125 80.664062 41.078125 79.441406 L 41.078125 71.410156 C 41.078125 71.117188 41.101562 70.8125 41.140625 70.503906 C 41.117188 70.511719 41.097656 70.515625 41.078125 70.519531 C 41.078125 70.519531 36.617188 70.519531 35.726562 70.519531 C 33.492188 70.519531 31.5625 69.628906 30.667969 67.84375 C 29.628906 65.910156 29.183594 62.636719 26.503906 60.855469 C 26.058594 60.558594 26.355469 60.109375 27.25 60.109375 C 28.140625 60.257812 30.074219 61.449219 31.261719 63.085938 C 32.601562 64.71875 33.941406 66.058594 36.320312 66.058594 C 40.019531 66.058594 42 65.871094 43.191406 65.234375 C 44.582031 63.167969 46.503906 61.597656 48.511719 61.597656 L 48.511719 61.558594 C 40.085938 61.289062 34.699219 58.488281 32.191406 54.164062 C 26.742188 54.226562 21.996094 54.765625 19.289062 55.214844 C 19.203125 54.726562 19.128906 54.238281 19.066406 53.746094 C 21.738281 53.304688 26.265625 52.785156 31.476562 52.683594 C 31.308594 52.273438 31.164062 51.851562 31.042969 51.421875 C 25.820312 51.15625 21.316406 51.363281 18.867188 51.566406 C 18.839844 51.074219 18.796875 50.582031 18.792969 50.082031 C 21.242188 49.878906 25.628906 49.679688 30.714844 49.914062 C 30.597656 49.171875 30.523438 48.414062 30.523438 47.621094 C 30.523438 45.09375 31.414062 42.417969 33.050781 40.1875 C 32.304688 37.65625 31.265625 32.304688 33.347656 30.371094 C 37.363281 30.371094 40.1875 32.304688 41.527344 33.496094 C 44.050781 32.453125 46.878906 31.855469 50 31.855469 C 53.121094 31.855469 55.949219 32.453125 58.328125 33.492188 C 59.664062 32.304688 62.492188 30.371094 66.507812 30.371094 C 68.738281 32.453125 67.546875 37.804688 66.804688 40.183594 C 68.4375 42.414062 69.332031 44.941406 69.183594 47.621094 C 69.183594 48.339844 69.117188 49.035156 69.019531 49.714844 C 74.222656 49.460938 78.726562 49.664062 81.21875 49.867188 C 81.214844 50.367188 81.167969 50.855469 81.144531 51.351562 C 78.65625 51.148438 74.042969 50.9375 68.710938 51.21875 C 68.582031 51.71875 68.417969 52.207031 68.230469 52.675781 C 73.503906 52.746094 78.140625 53.253906 80.941406 53.703125 C 80.875 54.195312 80.800781 54.683594 80.714844 55.167969 C 77.871094 54.714844 73.027344 54.183594 67.511719 54.15625 C 65.035156 58.433594 59.75 61.226562 51.488281 61.550781 L 51.488281 61.597656 C 55.351562 61.597656 58.921875 67.398438 58.921875 71.410156 L 58.921875 79.441406 C 58.921875 80.664062 59.664062 81.71875 60.71875 82.171875 C 74.34375 77.664062 84.203125 64.816406 84.203125 49.703125 C 84.203125 30.84375 68.859375 15.5 50 15.5 C 31.140625 15.5 15.796875 30.84375 15.796875 49.703125 C 15.796875 64.816406 25.65625 77.664062 39.28125 82.171875 Z M 39.28125 82.171875 "/>
</g>
</svg>
